<svg id="Group_1_copy" data-name="Group 1 copy" xmlns="http://www.w3.org/2000/svg" xmlns:xlink="http://www.w3.org/1999/xlink" width="2480" height="1860" viewBox="0 0 2480 1860">
  <defs>
    <style>
      .cls-1 {
        fill: #00be9d;
      }

      .cls-1, .cls-2, .cls-3 {
        fill-rule: evenodd;
      }

      .cls-2 {
        fill: #1a6484;
      }

      .cls-3 {
        fill: #0d5a78;
        stroke-linejoin: round;
        stroke-width: 10px;
        stroke: url(#linear-gradient);
        filter: url(#filter);
      }
    </style>
    <linearGradient id="linear-gradient" x1="1177.828" y1="1018" x2="1177.828" y2="843.906" gradientUnits="userSpaceOnUse">
      <stop offset="0.03" stop-color="#b5b5b5"/>
      <stop offset="0.5" stop-color="#f8f8f8"/>
      <stop offset="0.97" stop-color="#b5b5b5"/>
    </linearGradient>
    <filter id="filter" x="615" y="818" width="1092" height="251" filterUnits="userSpaceOnUse">
      <feOffset result="offset" dx="-23.383" dy="13.5" in="SourceAlpha"/>
      <feGaussianBlur result="blur" stdDeviation="5.916"/>
      <feFlood result="flood" flood-opacity="0.35"/>
      <feComposite result="composite" operator="in" in2="blur"/>
      <feGaussianBlur result="blur-2" stdDeviation="8" in="SourceAlpha"/>
      <feComposite result="composite-2"/>
      <feComposite result="composite-3"/>
      <feComposite result="composite-4"/>
      <feFlood result="flood-2" flood-opacity="0.41"/>
      <feComposite result="composite-5" operator="in" in2="composite-4"/>
      <feBlend result="blend" mode="screen" in2="composite"/>
      <feBlend result="blend-2" in="SourceGraphic"/>
      <feFlood result="flood-3" flood-color="#00be9d"/>
      <feComposite result="composite-6" operator="in" in2="SourceGraphic"/>
      <feBlend result="blend-3" in2="blend-2"/>
    </filter>
  </defs>
  <path class="cls-1" d="M899,661.333s-70.5,44.613-77.5,87.834c28.488,0.154,56.833,0,56.833,0,114.089-80.67,107.537-86.1,118.834-87.834C1010.2,659.332,899,661.333,899,661.333ZM914.5,635.5s105.02-3.026,139.5,10.333C1081.83,657,1120.94,667.955,1172.83,744c4.3,0.378,93,0,93,0s-66.22-122.814-134.33-144.667-110.25-36.969-191.167,5.167c-14.1,7.342-17.809,16.129-20.666,20.667A58.88,58.88,0,0,0,914.5,635.5Z"/>
  <path class="cls-2" d="M1090.17,552.833S1239.1,576.731,1327.83,744c61.63,0.2,62,0,62,0s-2.55-49.475-93-139.5S1090.17,552.833,1090.17,552.833ZM1302,573.5s74.01,37,149.83,170.5c51.39,1.086,46.5,0,46.5,0s-24.13-64-67.16-93c-42.42-35.955-108.5-77.5-108.5-77.5H1302Z"/>
  <path class="cls-1" d="M1426.02,1204.83s70.49-45.04,77.48-88.67c-28.48-.15-56.82,0-56.82,0-114.06,81.44-107.51,86.92-118.8,88.67C1314.84,1206.85,1426.02,1204.83,1426.02,1204.83Zm-15.5,26.08s-105,3.05-139.46-10.44c-27.83-11.27-66.93-22.33-118.81-99.09-4.29-.38-92.98,0-92.98,0s66.21,123.98,134.3,146.03,110.23,37.32,191.12-5.21c14.1-7.41,17.81-16.28,20.67-20.86A59.963,59.963,0,0,0,1410.52,1230.91Z"/>
  <path class="cls-2" d="M1234.9,1314.35s-148.9-24.12-237.613-192.97c-61.614-.2-61.985,0-61.985,0s2.55,49.94,92.978,140.82S1234.9,1314.35,1234.9,1314.35Zm-211.79-20.86s-73.985-37.35-149.793-172.11c-51.374-1.1-46.489,0-46.489,0s24.123,64.61,67.151,93.88c42.4,36.29,108.471,78.23,108.471,78.23h20.66Z"/>
  <g style="fill: #0d5a78; filter: url(#filter)">
    <path id="IPO_CIRCLE" data-name="IPO CIRCLE" class="cls-3" d="M674.671,846.654V1015.26h22.318V846.654H674.671Zm45.917,168.606h22.318V947.717c5.13,1.25,11.287,1.5,17.956,1.5,21.805,0,41.044-6.254,52.844-18.512,8.722-8.755,13.339-20.763,13.339-36.022,0-15.009-5.643-27.267-15.134-35.272-10.261-9.006-26.422-14.009-48.483-14.009a265.115,265.115,0,0,0-42.84,3.252V1015.26Zm22.318-150.845c3.847-1,11.287-1.751,21.035-1.751,24.626,0,40.787,10.757,40.787,33.021,0,23.264-16.418,36.022-43.353,36.022-7.439,0-13.6-.5-18.469-1.751V864.415ZM911.7,843.9c-46.174,0-80.291,35.022-80.291,88.555,0,51.032,32.065,85.553,77.726,85.553,44.122,0,80.292-30.769,80.292-88.8C989.423,879.174,958.9,843.9,911.7,843.9Zm-1.026,17.761c37.2,0,55.153,35.022,55.153,68.543,0,38.274-20.009,70.044-55.409,70.044-35.144,0-55.153-32.271-55.153-68.293C855.261,894.934,873.731,861.663,910.67,861.663Zm247.54,130.831c-8.98,4.253-22.83,7-36.42,7-42.07,0-66.44-26.517-66.44-67.792,0-44.278,26.93-69.543,67.46-69.543,14.37,0,26.42,3,34.89,7l5.39-17.761c-5.9-3-19.5-7.5-41.05-7.5-53.61,0-90.29,35.773-90.29,88.555,0,55.284,36.68,85.3,85.42,85.3,21.03,0,37.45-4,45.66-8Zm17.19-145.84V1015.26h22.32V846.654H1175.4Zm45.91,168.606h22.32V942.213h21.04c20.26,0.751,29.5,9.506,34.63,32.771,4.87,21.013,8.72,35.526,11.54,40.276h23.09c-3.59-6.51-7.7-22.766-13.34-46.28-4.1-17.511-12.06-29.518-25.4-34.021v-0.751c18.22-6,32.58-20.763,32.58-43.026,0-13.008-4.87-24.516-13.59-32.02-10.78-9.506-26.17-13.759-50.03-13.759-15.39,0-31.55,1.251-42.84,3.5V1015.26Zm22.32-151.1c3.59-1,11.29-2,22.06-2,23.6,0.25,39.76,9.756,39.76,31.519,0,19.262-15.13,32.02-38.99,32.02h-22.83V864.165Zm217.28,128.329c-8.98,4.253-22.83,7-36.43,7-42.07,0-66.44-26.517-66.44-67.792,0-44.278,26.94-69.543,67.47-69.543,14.36,0,26.42,3,34.88,7l5.39-17.761c-5.9-3-19.5-7.5-41.04-7.5-53.62,0-90.3,35.773-90.3,88.555,0,55.284,36.68,85.3,85.42,85.3,21.04,0,37.46-4,45.66-8Zm17.18,22.766h96.2V997h-73.88V846.654h-22.32V1015.26ZM1673.3,918.2h-67.2V864.915h71.05V846.654h-93.37V1015.26H1681V997h-74.9V936.21h67.2V918.2Z" style="stroke: inherit; filter: none; fill: inherit"/>
  </g>
  <use xlink:href="#IPO_CIRCLE" style="stroke: url(#linear-gradient); filter: none; fill: none"/>
</svg>
