<svg id="Group_1_copy" data-name="Group 1 copy" xmlns="http://www.w3.org/2000/svg" width="480" height="360" viewBox="0 0 480 360">
  <defs>
    <style>
      .cls-1 {
        fill: #00be9d;
      }

      .cls-1, .cls-2, .cls-3 {
        fill-rule: evenodd;
      }

      .cls-2 {
        fill: #1a6484;
      }

      .cls-3 {
        fill: #0d5a78;
      }
    </style>
  </defs>
  <path class="cls-1" d="M174,128s-13.646,8.635-15,17c5.514,0.03,11,0,11,0,22.082-15.613,20.813-16.664,23-17C195.523,127.613,174,128,174,128Zm3-5s20.327-.586,27,2c5.386,2.161,12.956,4.282,23,19,0.831,0.073,18,0,18,0s-12.817-23.77-26-28-21.339-7.155-37,1a8.883,8.883,0,0,0-4,4A11.439,11.439,0,0,0,177,123Z"/>
  <path class="cls-2" d="M211,107s28.825,4.625,46,37c11.928,0.038,12,0,12,0s-0.494-9.576-18-27S211,107,211,107Zm41,4s14.324,7.161,29,33c9.946,0.21,9,0,9,0s-4.67-12.388-13-18c-8.209-6.959-21-15-21-15h-4Z"/>
  <path class="cls-1" d="M276,233.192s13.642-8.716,15-17.16c-5.513-.031-11,0-11,0-22.077,15.761-20.809,16.822-23,17.16C254.486,233.583,276,233.192,276,233.192Zm-3,5.048s-20.322.591-26.993-2.019c-5.385-2.181-12.953-4.322-23-19.18-0.83-.074-18,0-18,0s12.814,24,25.993,28.265,21.334,7.223,36.991-1.009a8.936,8.936,0,0,0,4-4.038A11.545,11.545,0,0,0,273,238.24Z"/>
  <path class="cls-2" d="M239.012,254.391s-28.818-4.669-45.989-37.35c-11.925-.039-12,0-12,0s0.494,9.666,18,27.256S239.012,254.391,239.012,254.391Zm-40.99-4.038s-14.32-7.229-28.993-33.312c-9.943-.212-9,0-9,0s4.669,12.5,13,18.17c8.207,7.025,21,15.142,21,15.142h4Z"/>
  <path id="IPO_CIRCLE" data-name="IPO CIRCLE" class="cls-3" d="M130.581,163.869V196.5h4.32V163.869h-4.32Zm8.888,32.633h4.319V183.429a15.242,15.242,0,0,0,3.476.291c4.22,0,7.944-1.211,10.228-3.583a9.47,9.47,0,0,0,2.581-6.972,8.672,8.672,0,0,0-2.929-6.827c-1.986-1.743-5.114-2.712-9.384-2.712a51.285,51.285,0,0,0-8.291.63V196.5Zm4.319-29.2a18.554,18.554,0,0,1,4.071-.339c4.767,0,7.895,2.082,7.895,6.391,0,4.5-3.178,6.972-8.391,6.972a14.8,14.8,0,0,1-3.575-.339V167.306Zm32.669-3.97c-8.937,0-15.54,6.778-15.54,17.14,0,9.877,6.206,16.558,15.044,16.558,8.54,0,15.54-5.955,15.54-17.188C191.5,170.163,185.593,163.336,176.457,163.336Zm-0.2,3.438c7.2,0,10.675,6.778,10.675,13.266,0,7.408-3.873,13.557-10.725,13.557-6.8,0-10.675-6.246-10.675-13.218C165.534,173.213,169.109,166.774,176.259,166.774ZM224.17,192.1a17.67,17.67,0,0,1-7.05,1.355c-8.143,0-12.859-5.132-12.859-13.121,0-8.569,5.213-13.46,13.058-13.46a16.066,16.066,0,0,1,6.752,1.356l1.043-3.438a18.332,18.332,0,0,0-7.944-1.452c-10.377,0-17.477,6.924-17.477,17.14,0,10.7,7.1,16.51,16.533,16.51a21.91,21.91,0,0,0,8.838-1.55Zm3.326-28.227V196.5h4.32V163.869H227.5Zm8.888,32.633H240.7V182.364h4.071c3.923,0.145,5.71,1.84,6.7,6.343,0.943,4.067,1.688,6.875,2.234,7.8h4.469c-0.695-1.259-1.49-4.406-2.582-8.958-0.794-3.389-2.334-5.713-4.915-6.584v-0.145a8.6,8.6,0,0,0,6.305-8.328,8.032,8.032,0,0,0-2.631-6.2c-2.086-1.839-5.065-2.663-9.682-2.663a46.165,46.165,0,0,0-8.291.678v32.2Zm4.319-29.244a18.179,18.179,0,0,1,4.27-.388c4.568,0.049,7.7,1.889,7.7,6.1,0,3.728-2.93,6.2-7.547,6.2H240.7v-11.91ZM282.756,192.1a17.674,17.674,0,0,1-7.05,1.355c-8.143,0-12.859-5.132-12.859-13.121,0-8.569,5.213-13.46,13.057-13.46a16.071,16.071,0,0,1,6.753,1.356l1.042-3.438a18.329,18.329,0,0,0-7.944-1.452c-10.376,0-17.476,6.924-17.476,17.14,0,10.7,7.1,16.51,16.533,16.51a21.914,21.914,0,0,0,8.838-1.55Zm3.326,4.406H304.7v-3.535H290.4v-29.1h-4.32V196.5Zm37.783-18.786H310.857V167.4H324.61v-3.534H306.538V196.5h18.817v-3.535h-14.5V181.2h13.008v-3.486Z"/>
</svg>
